<svg width="24" height="27" viewBox="0 0 24 27" fill="none" xmlns="http://www.w3.org/2000/svg">
<g id="ic_instagram 1" clip-path="url(#clip0_445_532)">
<path id="Vector" d="M12.005 7.66013C8.73983 7.66013 6.10612 10.2652 6.10612 13.4949C6.10612 16.7246 8.73983 19.3297 12.005 19.3297C15.2702 19.3297 17.9039 16.7246 17.9039 13.4949C17.9039 10.2652 15.2702 7.66013 12.005 7.66013ZM12.005 17.2883C9.89496 17.2883 8.16996 15.5871 8.16996 13.4949C8.16996 11.4027 9.88982 9.70154 12.005 9.70154C14.1202 9.70154 15.84 11.4027 15.84 13.4949C15.84 15.5871 14.115 17.2883 12.005 17.2883ZM19.5211 7.42146C19.5211 8.1781 18.905 8.7824 18.1452 8.7824C17.3802 8.7824 16.7693 8.17302 16.7693 7.42146C16.7693 6.6699 17.3853 6.06052 18.1452 6.06052C18.905 6.06052 19.5211 6.6699 19.5211 7.42146ZM23.428 8.80271C23.3407 6.97966 22.9197 5.36482 21.5695 4.03435C20.2244 2.70388 18.5918 2.28748 16.7487 2.19607C14.8492 2.08943 9.15567 2.08943 7.25612 2.19607C5.41818 2.2824 3.78559 2.6988 2.43537 4.02927C1.08515 5.35974 0.669303 6.97459 0.576892 8.79763C0.46908 10.6765 0.46908 16.3082 0.576892 18.1871C0.664169 20.0101 1.08515 21.625 2.43537 22.9554C3.78559 24.2859 5.41305 24.7023 7.25612 24.7937C9.15567 24.9004 14.8492 24.9004 16.7487 24.7937C18.5918 24.7074 20.2244 24.291 21.5695 22.9554C22.9146 21.625 23.3356 20.0101 23.428 18.1871C23.5358 16.3082 23.5358 10.6816 23.428 8.80271ZM20.974 20.2031C20.5735 21.1984 19.7983 21.9652 18.7869 22.3664C17.2724 22.9605 13.6787 22.8234 12.005 22.8234C10.3313 22.8234 6.73246 22.9554 5.22309 22.3664C4.21684 21.9703 3.44162 21.2035 3.03604 20.2031C2.43537 18.7051 2.57399 15.1504 2.57399 13.4949C2.57399 11.8394 2.44051 8.27966 3.03604 6.7867C3.43649 5.79138 4.21171 5.02459 5.22309 4.62341C6.7376 4.02927 10.3313 4.16638 12.005 4.16638C13.6787 4.16638 17.2775 4.03435 18.7869 4.62341C19.7932 5.01951 20.5684 5.7863 20.974 6.7867C21.5746 8.28474 21.436 11.8394 21.436 13.4949C21.436 15.1504 21.5746 18.7101 20.974 20.2031Z" fill="#1F201D"/>
</g>
<defs>
<clipPath id="clip0_445_532">
<rect width="23" height="26" fill="white" transform="translate(0.5 0.5)"/>
</clipPath>
</defs>
</svg>
