<svg width="33" height="33" viewBox="0 0 33 33" fill="none" xmlns="http://www.w3.org/2000/svg">
<g id="ic_social-twitter 1">
<path id="Vector" d="M28.0964 6.34201C28.0964 6.29045 28.05 6.25951 28.0087 6.2956C27.1992 6.99685 25.245 7.56404 24.9975 7.58982C24.9902 7.59309 24.9823 7.59478 24.9743 7.59478C24.9663 7.59478 24.9584 7.59309 24.9511 7.58982C23.5176 5.30045 20.2125 5.91919 20.2125 5.91919C15.3553 6.95044 15.8915 11.8592 15.9843 12.3748C15.9843 12.4006 15.9843 12.4212 15.9379 12.4212C10.5342 12.6894 5.81622 7.66716 5.27997 7.0742C5.27465 7.06772 5.26796 7.0625 5.26038 7.05892C5.2528 7.05534 5.24452 7.05348 5.23614 7.05348C5.22776 7.05348 5.21948 7.05534 5.2119 7.05892C5.20433 7.0625 5.19763 7.06772 5.19231 7.0742C4.58591 8.19839 4.39361 9.49986 4.64901 10.7514C4.9044 12.0029 5.59126 13.125 6.58966 13.9217C6.59822 13.9267 6.60532 13.9338 6.61025 13.9424C6.61519 13.951 6.61778 13.9608 6.61778 13.9707C6.61778 13.9806 6.61519 13.9903 6.61025 13.9989C6.60532 14.0075 6.59822 14.0147 6.58966 14.0197C5.88544 13.9976 5.18922 13.8636 4.52716 13.6226C4.49622 13.6226 4.46013 13.6226 4.46013 13.6742C4.53231 16.8711 7.66731 18.3148 8.39435 18.619C8.40466 18.6224 8.41364 18.629 8.42001 18.6378C8.42638 18.6466 8.42981 18.6572 8.42981 18.668C8.42981 18.6789 8.42638 18.6895 8.42001 18.6983C8.41364 18.7071 8.40466 18.7136 8.39435 18.717C7.74281 18.859 7.07416 18.9059 6.40919 18.8562C6.40024 18.8559 6.39134 18.8577 6.38321 18.8614C6.37508 18.8652 6.36796 18.8708 6.36243 18.8779C6.3569 18.8849 6.35311 18.8932 6.35138 18.9019C6.34965 18.9107 6.35002 18.9198 6.35247 18.9284C7.00731 21.3931 10.2197 22.4244 10.7972 22.5945C10.8068 22.5966 10.8158 22.6011 10.8232 22.6077C10.8305 22.6143 10.8361 22.6227 10.8392 22.6321C10.8423 22.6414 10.8429 22.6515 10.841 22.6612C10.8391 22.6709 10.8346 22.6799 10.8281 22.6873C8.84294 24.4611 4.92935 24.9303 4.12497 25.0128C4.11428 25.0142 4.10422 25.0186 4.09596 25.0256C4.0877 25.0325 4.08159 25.0417 4.07835 25.0519C4.0751 25.0622 4.07485 25.0732 4.07763 25.0836C4.08041 25.094 4.0861 25.1035 4.09403 25.1108C7.09497 27.1733 14.9531 28.8851 20.955 23.7547C22.7293 22.2083 24.1314 20.2809 25.0564 18.1167C25.9814 15.9524 26.4054 13.6071 26.2968 11.2559C26.2969 11.2473 26.2993 11.2389 26.3039 11.2316C26.3084 11.2244 26.3149 11.2185 26.3226 11.2147C27.4005 10.5816 28.2986 9.68347 28.9317 8.6056C28.9317 8.55404 28.9317 8.5231 28.8543 8.53857C28.3324 8.72197 27.7688 8.75238 27.2301 8.62623C27.2301 8.62623 28.1118 7.09998 28.0964 6.34201Z" stroke="#1F201D" stroke-width="1.8" stroke-linecap="round"/>
</g>
</svg>
