<svg width="24" height="25" viewBox="0 0 24 25" fill="none" xmlns="http://www.w3.org/2000/svg">
<g id="ic_dribbble 1" clip-path="url(#clip0_515_1068)">
<path id="Vector" d="M12 0.875C5.58994 0.875 0.375 6.08994 0.375 12.5C0.375 18.9101 5.58994 24.125 12 24.125C18.4101 24.125 23.625 18.9101 23.625 12.5C23.625 6.08994 18.4101 0.875 12 0.875ZM19.6861 6.23591C21.069 7.92556 21.9065 10.0776 21.9284 12.4213C21.601 12.3521 18.3181 11.6862 15.0142 12.1017C14.7446 11.4435 14.4901 10.8645 14.1415 10.151C17.8128 8.65213 19.4767 6.51908 19.6861 6.23591ZM18.5822 5.08766C18.4036 5.34205 16.9089 7.35106 13.3781 8.67448C11.751 5.68498 9.94758 3.22911 9.67313 2.86161C12.822 2.10256 16.1403 2.92114 18.5822 5.08766ZM7.77848 3.52906C8.04028 3.88808 9.81464 6.347 11.4599 9.27167C6.8152 10.5051 2.72428 10.4873 2.28019 10.4815C2.92406 7.40023 5.00053 4.83936 7.77848 3.52906ZM2.07047 12.5151C2.07047 12.4136 2.07248 12.3125 2.07553 12.2117C2.50997 12.2206 7.32178 12.2826 12.2805 10.7986C12.5648 11.3549 12.8363 11.9196 13.0855 12.4837C9.49495 13.4951 6.23269 16.3991 4.62314 19.1543C3.03722 17.394 2.07047 15.0655 2.07047 12.5151ZM5.90517 20.3486C6.94237 18.2283 9.75727 15.4913 13.7604 14.1256C15.1545 17.7483 15.731 20.7844 15.8787 21.6555C12.6859 23.0155 8.84672 22.6424 5.90517 20.3486ZM17.548 20.7465C17.4462 20.1425 16.9177 17.2357 15.619 13.6668C18.7305 13.1687 21.4643 13.9841 21.804 14.0913C21.3614 16.8541 19.7756 19.2402 17.548 20.7465Z" fill="#1F201D"/>
</g>
<defs>
<clipPath id="clip0_515_1068">
<rect width="24" height="24" fill="white" transform="translate(0 0.5)"/>
</clipPath>
</defs>
</svg>
