<svg width="24" height="27" viewBox="0 0 24 27" fill="none" xmlns="http://www.w3.org/2000/svg">
<g id="ic_instagram 1" clip-path="url(#clip0_515_1066)">
<path id="Vector" d="M12.0051 7.66025C8.73989 7.66025 6.10618 10.2653 6.10618 13.495C6.10618 16.7247 8.73989 19.3298 12.0051 19.3298C15.2702 19.3298 17.9039 16.7247 17.9039 13.495C17.9039 10.2653 15.2702 7.66025 12.0051 7.66025ZM12.0051 17.2884C9.89502 17.2884 8.17002 15.5872 8.17002 13.495C8.17002 11.4028 9.88988 9.70166 12.0051 9.70166C14.1202 9.70166 15.8401 11.4028 15.8401 13.495C15.8401 15.5872 14.1151 17.2884 12.0051 17.2884ZM19.5211 7.42158C19.5211 8.17822 18.9051 8.78252 18.1452 8.78252C17.3803 8.78252 16.7693 8.17315 16.7693 7.42158C16.7693 6.67002 17.3854 6.06064 18.1452 6.06064C18.9051 6.06064 19.5211 6.67002 19.5211 7.42158ZM23.428 8.80283C23.3408 6.97979 22.9198 5.36494 21.5696 4.03447C20.2245 2.704 18.5919 2.2876 16.7488 2.19619C14.8493 2.08955 9.15573 2.08955 7.25618 2.19619C5.41824 2.28252 3.78565 2.69893 2.43543 4.02939C1.08521 5.35986 0.669364 6.97471 0.576953 8.79775C0.469141 10.6767 0.469141 16.3083 0.576953 18.1872C0.66423 20.0103 1.08521 21.6251 2.43543 22.9556C3.78565 24.286 5.41311 24.7024 7.25618 24.7938C9.15573 24.9005 14.8493 24.9005 16.7488 24.7938C18.5919 24.7075 20.2245 24.2911 21.5696 22.9556C22.9146 21.6251 23.3356 20.0103 23.428 18.1872C23.5358 16.3083 23.5358 10.6817 23.428 8.80283ZM20.974 20.2032C20.5736 21.1985 19.7984 21.9653 18.787 22.3665C17.2725 22.9606 13.6787 22.8235 12.0051 22.8235C10.3314 22.8235 6.73252 22.9556 5.22315 22.3665C4.2169 21.9704 3.44168 21.2036 3.0361 20.2032C2.43543 18.7052 2.57405 15.1505 2.57405 13.495C2.57405 11.8396 2.44057 8.27979 3.0361 6.78682C3.43655 5.7915 4.21177 5.02471 5.22315 4.62354C6.73766 4.02939 10.3314 4.1665 12.0051 4.1665C13.6787 4.1665 17.2776 4.03447 18.787 4.62354C19.7932 5.01963 20.5684 5.78643 20.974 6.78682C21.5747 8.28486 21.4361 11.8396 21.4361 13.495C21.4361 15.1505 21.5747 18.7103 20.974 20.2032Z" fill="#1F201D"/>
</g>
<defs>
<clipPath id="clip0_515_1066">
<rect width="23" height="26" fill="white" transform="translate(0.5 0.5)"/>
</clipPath>
</defs>
</svg>
