<svg width="33" height="33" viewBox="0 0 33 33" fill="none" xmlns="http://www.w3.org/2000/svg">
<g id="ic_social-twitter 1">
<path id="Vector" d="M28.0963 6.34225C28.0963 6.29069 28.0499 6.25975 28.0087 6.29585C27.1992 6.9971 25.2449 7.56428 24.9974 7.59006C24.9901 7.59334 24.9822 7.59503 24.9742 7.59503C24.9662 7.59503 24.9583 7.59334 24.951 7.59006C23.5176 5.30069 20.2124 5.91944 20.2124 5.91944C15.3553 6.95069 15.8915 11.8594 15.9843 12.3751C15.9843 12.4008 15.9843 12.4215 15.9379 12.4215C10.5342 12.6896 5.81619 7.66741 5.27994 7.07444C5.27462 7.06796 5.26793 7.06274 5.26035 7.05916C5.25277 7.05558 5.24449 7.05372 5.23611 7.05372C5.22773 7.05372 5.21945 7.05558 5.21187 7.05916C5.20429 7.06274 5.1976 7.06796 5.19228 7.07444C4.58588 8.19864 4.39358 9.50011 4.64898 10.7516C4.90437 12.0032 5.59123 13.1252 6.58963 13.9219C6.59819 13.9269 6.60529 13.9341 6.61022 13.9427C6.61516 13.9513 6.61775 13.961 6.61775 13.9709C6.61775 13.9808 6.61516 13.9906 6.61022 13.9992C6.60529 14.0078 6.59819 14.0149 6.58963 14.0199C5.88541 13.9979 5.18919 13.8639 4.52713 13.6229C4.49619 13.6229 4.4601 13.6229 4.4601 13.6744C4.53228 16.8713 7.66728 18.3151 8.39431 18.6193C8.40463 18.6227 8.41361 18.6292 8.41998 18.638C8.42635 18.6468 8.42978 18.6574 8.42978 18.6683C8.42978 18.6791 8.42635 18.6897 8.41998 18.6985C8.41361 18.7073 8.40463 18.7139 8.39431 18.7173C7.74278 18.8592 7.07413 18.9061 6.40916 18.8565C6.40021 18.8561 6.39131 18.8579 6.38318 18.8617C6.37505 18.8654 6.36793 18.8711 6.3624 18.8781C6.35687 18.8851 6.35308 18.8934 6.35135 18.9022C6.34962 18.911 6.34999 18.92 6.35244 18.9287C7.00728 21.3933 10.2196 22.4246 10.7971 22.5948C10.8068 22.5968 10.8158 22.6013 10.8231 22.6079C10.8305 22.6145 10.836 22.6229 10.8392 22.6323C10.8423 22.6417 10.8429 22.6517 10.841 22.6614C10.839 22.6711 10.8346 22.6801 10.8281 22.6876C8.84291 24.4613 4.92932 24.9305 4.12494 25.013C4.11425 25.0145 4.10419 25.0189 4.09593 25.0258C4.08767 25.0328 4.08156 25.0419 4.07832 25.0522C4.07507 25.0625 4.07482 25.0735 4.0776 25.0839C4.08038 25.0943 4.08607 25.1037 4.094 25.111C7.09494 27.1735 14.9531 28.8854 20.9549 23.7549C22.7293 22.2085 24.1313 20.2812 25.0563 18.1169C25.9813 15.9526 26.4054 13.6073 26.2968 11.2562C26.2969 11.2476 26.2993 11.2392 26.3039 11.2319C26.3084 11.2246 26.3149 11.2187 26.3226 11.2149C27.4005 10.5818 28.2986 9.68372 28.9317 8.60585C28.9317 8.55428 28.9317 8.52335 28.8543 8.53881C28.3323 8.72221 27.7688 8.75263 27.2301 8.62647C27.2301 8.62647 28.1118 7.10022 28.0963 6.34225Z" stroke="#1F201D" stroke-width="1.8" stroke-linecap="round"/>
</g>
</svg>
